<svg width="99" height="142" viewBox="0 0 99 142" fill="none" xmlns="http://www.w3.org/2000/svg">
<g id="Group 10">
<path id="Vector" d="M59.1929 0.193756H39.8071C17.8566 0.193756 0 18.1088 0 40.1311V101.648C0 123.67 17.8566 141.585 39.8071 141.585H59.1929C81.1434 141.585 99 123.67 99 101.648V40.1311C99 18.1088 81.1434 0.193756 59.1929 0.193756ZM92.8758 101.648C92.8758 120.281 77.7658 135.441 59.1929 135.441H39.8071C21.2342 135.441 6.12417 120.281 6.12417 101.648V40.1311C6.12417 21.4974 21.2342 6.33795 39.8071 6.33795H59.1929C77.7658 6.33795 92.8758 21.4974 92.8758 40.1311V101.648Z" fill="white"/>
<path id="Vector_2" d="M20.0427 52.438L45.3039 77.7819C47.0966 79.5693 49.9954 79.5693 51.7881 77.7819L77.0494 52.438C80.9726 48.1073 74.8929 42.0004 70.5652 45.9103L48.5442 68.0182L26.5231 45.9103C24.749 43.9665 21.724 43.8957 19.8719 45.7651C18.0161 47.627 18.0903 50.673 20.0389 52.438H20.0427Z" fill="white"/>
<path id="Vector_3" d="M20.0427 78.132L45.3039 103.476C47.0966 105.263 49.9954 105.263 51.7881 103.476L77.0494 78.132C80.9726 73.8013 74.8929 67.6944 70.5652 71.6043L48.5442 93.7122L26.5231 71.6043C24.749 69.6605 21.724 69.5897 19.8719 71.4591C18.0161 73.321 18.0903 76.367 20.0389 78.132H20.0427Z" fill="white"/>
</g>
</svg>
